<?xml version="1.0" standalone="no"?>
<!DOCTYPE svg PUBLIC "-//W3C//DTD SVG 20010904//EN"
 "http://www.w3.org/TR/2001/REC-SVG-20010904/DTD/svg10.dtd">
<svg version="1.0" xmlns="http://www.w3.org/2000/svg"
 width="526.000000pt" height="360.000000pt" viewBox="0 0 526.000000 360.000000"
 preserveAspectRatio="xMidYMid meet">

<g transform="translate(0.000000,360.000000) scale(0.100000,-0.100000)"
fill="#000000" stroke="none">
<path d="M420 1800 l0 -1390 2210 0 2210 0 0 1390 0 1390 -2210 0 -2210 0 0
-1390z m4300 -1 l0 -1270 -44 3 c-48 3 8 -54 -780 796 -93 100 -172 182 -175
182 -4 0 -134 -136 -288 -303 -459 -494 -429 -464 -446 -447 -13 14 -156 186
-849 1023 -126 152 -233 275 -237 273 -4 -3 -113 -133 -243 -288 -469 -565
-833 -1006 -927 -1120 l-96 -117 -47 0 -48 -1 0 1270 0 1270 2090 0 2090 0 0
-1271z"/>
<path d="M3082 2789 c-113 -22 -212 -142 -212 -259 0 -51 30 -126 67 -169 121
-142 347 -113 436 54 29 55 30 173 3 229 -54 108 -175 168 -294 145z"/>
</g>
</svg>
