<svg xmlns="http://www.w3.org/2000/svg" xmlns:xlink="http://www.w3.org/1999/xlink" width="500" zoomAndPan="magnify" viewBox="0 0 375 374.999991" height="500" preserveAspectRatio="xMidYMid meet" version="1.0"><defs><g/><clipPath id="447d341ce1"><path d="M 27.695312 5.882812 L 347.195312 5.882812 L 347.195312 325.382812 L 27.695312 325.382812 Z M 27.695312 5.882812 " clip-rule="nonzero"/></clipPath></defs><g fill="#1d2f6f" fill-opacity="1"><g transform="translate(29.901377, 361.853766)"><g><path d="M 17.832031 0.886719 C 28.003906 0.886719 34.667969 -4.5 34.667969 -12.761719 C 34.667969 -21.019531 28.003906 -26.410156 17.832031 -26.410156 C 7.65625 -26.410156 0.992188 -21.019531 0.992188 -12.761719 C 0.992188 -4.5 7.65625 0.886719 17.832031 0.886719 Z M 17.832031 -6.914062 C 13.859375 -6.914062 11.273438 -9.214844 11.273438 -12.761719 C 11.273438 -16.304688 13.859375 -18.609375 17.832031 -18.609375 C 21.800781 -18.609375 24.386719 -16.304688 24.386719 -12.761719 C 24.386719 -9.214844 21.800781 -6.914062 17.832031 -6.914062 Z M 17.832031 -6.914062 "/></g></g></g><g fill="#1d2f6f" fill-opacity="1"><g transform="translate(72.612899, 361.853766)"><g><path d="M 16.414062 0.707031 C 25.984375 0.707031 31.300781 -3.4375 31.300781 -10.917969 L 31.300781 -25.523438 L 21.019531 -25.523438 L 21.019531 -11.449219 C 21.019531 -8.648438 19.355469 -7.195312 16.414062 -7.195312 C 13.433594 -7.195312 11.804688 -8.648438 11.804688 -11.449219 L 11.804688 -25.523438 L 1.523438 -25.523438 L 1.523438 -10.917969 C 1.523438 -3.4375 6.839844 0.707031 16.414062 0.707031 Z M 16.414062 0.707031 "/></g></g></g><g fill="#1d2f6f" fill-opacity="1"><g transform="translate(112.488982, 361.853766)"><g><path d="M 25.84375 0.636719 C 28.253906 0.636719 31.015625 -0.105469 32.472656 -1.167969 L 31.195312 -5.351562 C 30.804688 -5.105469 30.132812 -4.890625 29.636719 -4.890625 C 28.75 -4.890625 28.21875 -5.351562 27.828125 -6.027344 L 26.726562 -7.796875 C 26.230469 -8.863281 25.59375 -9.570312 24.601562 -9.855469 L 24.601562 -9.890625 C 28.605469 -11.023438 30.839844 -13.613281 30.839844 -17.121094 C 30.839844 -22.546875 26.976562 -25.523438 19.957031 -25.523438 L 1.773438 -25.523438 L 1.773438 0 L 12.050781 0 L 12.050781 -8.152344 L 14.25 -8.152344 C 15.738281 -8.152344 16.800781 -7.375 17.546875 -6.097656 L 18.539062 -4.183594 C 19.851562 -1.558594 22.085938 0.636719 25.84375 0.636719 Z M 12.050781 -14.003906 L 12.050781 -19.140625 L 17.371094 -19.140625 C 19.425781 -19.140625 20.558594 -18.21875 20.558594 -16.589844 C 20.558594 -14.921875 19.425781 -14.003906 17.335938 -14.003906 Z M 12.050781 -14.003906 "/></g></g></g><g fill="#1d2f6f" fill-opacity="1"><g transform="translate(152.223296, 361.853766)"><g/></g></g><g fill="#1d2f6f" fill-opacity="1"><g transform="translate(166.048854, 361.853766)"><g><path d="M 14.996094 0.816406 C 23.75 0.816406 29.671875 -2.585938 29.636719 -8.332031 C 29.636719 -13.1875 26.265625 -15.597656 18.398438 -16.449219 L 14.746094 -16.800781 C 12.195312 -17.085938 11.058594 -17.511719 11.09375 -18.257812 C 11.09375 -19.25 12.796875 -19.851562 15.242188 -19.851562 C 17.9375 -19.886719 20.773438 -18.929688 22.472656 -17.261719 L 27.828125 -21.375 C 25.769531 -24.460938 20.878906 -26.339844 15.3125 -26.339844 C 6.984375 -26.339844 1.132812 -23.148438 1.097656 -17.546875 C 1.097656 -12.867188 4.429688 -10.457031 12.160156 -9.5 L 15.703125 -9.109375 C 18.503906 -8.792969 19.710938 -8.292969 19.710938 -7.445312 C 19.710938 -6.417969 18.113281 -5.847656 15.527344 -5.847656 C 12.125 -5.847656 8.507812 -7.125 6.523438 -9.109375 L 0.78125 -4.925781 C 3.011719 -1.0625 8.792969 0.816406 14.996094 0.816406 Z M 14.996094 0.816406 "/></g></g></g><g fill="#1d2f6f" fill-opacity="1"><g transform="translate(203.302156, 361.853766)"><g><path d="M 17.582031 0.707031 C 26.515625 0.707031 32.71875 -3.617188 33.605469 -10.421875 L 24.105469 -11.699219 C 23.609375 -8.898438 21.164062 -7.089844 17.796875 -7.089844 C 13.789062 -7.089844 11.273438 -9.289062 11.273438 -12.761719 C 11.273438 -16.234375 13.46875 -18.433594 16.945312 -18.433594 C 19.636719 -18.433594 21.480469 -16.945312 22.121094 -14.605469 L 31.441406 -16.625 C 30.273438 -22.507812 24.566406 -26.230469 16.765625 -26.230469 C 7.089844 -26.230469 0.992188 -20.984375 0.992188 -12.761719 C 0.992188 -4.359375 7.445312 0.707031 17.582031 0.707031 Z M 17.582031 0.707031 "/></g></g></g><g fill="#1d2f6f" fill-opacity="1"><g transform="translate(244.41874, 361.853766)"><g><path d="M 1.773438 0 L 25.167969 0 L 25.167969 -6.914062 L 11.699219 -6.914062 L 11.699219 -10.03125 L 23.394531 -10.03125 L 23.394531 -15.882812 L 11.699219 -15.882812 L 11.699219 -18.609375 L 24.8125 -18.609375 L 24.8125 -25.523438 L 1.773438 -25.523438 Z M 1.773438 0 "/></g></g></g><g fill="#1d2f6f" fill-opacity="1"><g transform="translate(277.383469, 361.853766)"><g><path d="M 1.773438 0 L 11.34375 0 L 11.34375 -14.886719 L 11.414062 -14.886719 L 21.089844 0 L 32.96875 0 L 32.96875 -25.523438 L 23.394531 -25.523438 L 23.394531 -10.742188 L 23.359375 -10.742188 L 13.648438 -25.523438 L 1.773438 -25.523438 Z M 1.773438 0 "/></g></g></g><g fill="#1d2f6f" fill-opacity="1"><g transform="translate(319.208905, 361.853766)"><g><path d="M 1.773438 0 L 25.167969 0 L 25.167969 -6.914062 L 11.699219 -6.914062 L 11.699219 -10.03125 L 23.394531 -10.03125 L 23.394531 -15.882812 L 11.699219 -15.882812 L 11.699219 -18.609375 L 24.8125 -18.609375 L 24.8125 -25.523438 L 1.773438 -25.523438 Z M 1.773438 0 "/></g></g></g><g clip-path="url(#447d341ce1)"><path fill="#1d2f6f" d="M 125.460938 286.304688 C 123.289062 285.21875 121.820312 282.917969 121.820312 280.363281 C 121.820312 262.28125 129.230469 245.859375 141.054688 233.972656 C 142.84375 232.183594 144.953125 230.332031 146.996094 228.667969 C 149.808594 232.183594 152.109375 236.082031 153.769531 240.171875 C 152.554688 241.128906 151.46875 242.214844 150.382812 243.300781 C 141.628906 252.054688 135.941406 263.75 135.109375 276.722656 C 140.671875 279.851562 144.953125 281.832031 149.042969 282.410156 C 152.9375 282.917969 157.285156 282.152344 163.097656 280.109375 L 163.097656 257.933594 C 163.097656 243.492188 157.15625 230.332031 147.570312 220.871094 C 138.113281 211.289062 125.015625 205.472656 110.636719 205.472656 C 98.878906 205.472656 88.082031 209.371094 79.390625 215.761719 C 71.148438 221.960938 64.757812 230.394531 61.242188 240.234375 C 67.570312 250.777344 75.171875 260.617188 83.800781 269.308594 C 110.316406 295.828125 147.058594 312.1875 187.507812 312.1875 C 197.222656 312.1875 206.742188 311.226562 216.199219 309.246094 C 224.316406 307.648438 232.175781 305.347656 239.972656 302.472656 L 239.972656 280.300781 C 239.972656 265.859375 234.027344 252.824219 224.441406 243.238281 C 214.984375 233.78125 201.886719 227.839844 187.507812 227.839844 C 183.484375 227.839844 179.648438 228.347656 175.878906 229.179688 C 174.089844 224.960938 171.851562 220.9375 169.234375 217.292969 C 175.046875 215.570312 181.117188 214.609375 187.507812 214.609375 C 197.667969 214.609375 207.382812 217.039062 216.007812 221.128906 C 221.441406 213.140625 228.597656 206.496094 236.839844 201.511719 C 246.679688 195.570312 258.183594 192.183594 270.386719 192.183594 C 283.488281 192.183594 295.820312 196.078125 306.105469 202.851562 C 312.878906 207.324219 318.953125 213.011719 323.679688 219.722656 C 330.324219 202.789062 333.96875 184.320312 333.96875 165.535156 C 333.96875 125.085938 317.609375 88.472656 291.089844 61.953125 C 264.574219 35.433594 227.957031 19.078125 187.507812 19.078125 C 147.058594 19.078125 110.316406 35.5 83.800781 62.019531 C 57.28125 88.535156 40.921875 125.152344 40.921875 165.597656 C 40.921875 186.941406 45.523438 207.132812 53.636719 225.472656 C 58.113281 217.613281 64.308594 210.714844 71.59375 205.21875 C 82.648438 197.101562 96.066406 192.246094 110.699219 192.246094 C 128.785156 192.246094 145.078125 199.660156 156.964844 211.480469 C 168.851562 223.300781 176.199219 239.851562 176.199219 257.871094 L 176.199219 284.515625 C 176.199219 287.328125 174.410156 289.820312 171.851562 290.714844 C 161.820312 294.804688 154.664062 296.273438 147.378906 295.316406 C 140.351562 294.484375 134.089844 291.355469 125.460938 286.304688 Z M 110.699219 120.679688 C 119.070312 120.679688 126.546875 124.066406 132.042969 129.433594 C 137.476562 134.863281 140.863281 142.53125 140.863281 150.773438 C 140.863281 159.144531 137.476562 166.621094 132.042969 172.117188 C 126.613281 177.546875 119.070312 180.933594 110.699219 180.933594 C 102.457031 180.933594 94.855469 177.546875 89.359375 172.117188 C 83.925781 166.6875 80.605469 159.144531 80.605469 150.773438 C 80.605469 142.53125 83.863281 134.925781 89.359375 129.433594 C 94.789062 124.066406 102.457031 120.679688 110.699219 120.679688 Z M 122.714844 138.699219 C 119.710938 135.695312 115.429688 133.839844 110.699219 133.839844 C 106.101562 133.839844 101.882812 135.628906 98.6875 138.699219 C 95.683594 141.828125 93.703125 146.109375 93.703125 150.710938 C 93.703125 155.4375 95.621094 159.65625 98.6875 162.722656 C 101.820312 165.726562 106.101562 167.707031 110.699219 167.707031 C 115.429688 167.707031 119.648438 165.792969 122.714844 162.722656 C 125.78125 159.65625 127.699219 155.4375 127.699219 150.710938 C 127.632812 146.109375 125.71875 141.828125 122.714844 138.699219 Z M 264.1875 120.679688 C 272.558594 120.679688 280.035156 124.066406 285.53125 129.433594 C 290.964844 134.863281 294.285156 142.53125 294.285156 150.773438 C 294.285156 159.144531 291.027344 166.621094 285.53125 172.117188 C 280.101562 177.546875 272.558594 180.933594 264.1875 180.933594 C 255.816406 180.933594 248.339844 177.546875 242.847656 172.117188 C 237.414062 166.6875 234.027344 159.144531 234.027344 150.773438 C 234.027344 142.53125 237.414062 134.925781 242.847656 129.433594 C 248.339844 124.066406 255.816406 120.679688 264.1875 120.679688 Z M 276.203125 138.699219 C 273.070312 135.695312 268.789062 133.839844 264.1875 133.839844 C 259.460938 133.839844 255.242188 135.628906 252.175781 138.699219 C 249.171875 141.828125 247.191406 146.109375 247.191406 150.710938 C 247.191406 155.4375 249.109375 159.65625 252.175781 162.722656 C 255.242188 165.792969 259.460938 167.707031 264.1875 167.707031 C 268.789062 167.707031 273.007812 165.792969 276.203125 162.722656 C 279.207031 159.722656 281.1875 155.4375 281.1875 150.710938 C 281.1875 146.109375 279.207031 141.828125 276.203125 138.699219 Z M 187.507812 142.59375 C 195.75 142.59375 203.226562 145.980469 208.722656 151.414062 C 214.15625 156.84375 217.542969 164.386719 217.542969 172.757812 C 217.542969 181 214.15625 188.476562 208.722656 193.972656 C 203.292969 199.402344 195.753906 202.789062 187.507812 202.789062 C 179.136719 202.789062 171.660156 199.402344 166.167969 193.972656 C 160.734375 188.539062 157.347656 181 157.347656 172.757812 C 157.347656 164.386719 160.734375 156.910156 166.167969 151.414062 C 171.660156 145.980469 179.136719 142.59375 187.507812 142.59375 Z M 199.394531 160.742188 C 196.390625 157.738281 192.109375 155.757812 187.507812 155.757812 C 182.78125 155.757812 178.5625 157.675781 175.496094 160.742188 C 172.363281 163.746094 170.511719 168.027344 170.511719 172.757812 C 170.511719 177.355469 172.300781 181.574219 175.496094 184.640625 C 178.5 187.773438 182.78125 189.625 187.507812 189.625 C 192.109375 189.625 196.328125 187.835938 199.394531 184.640625 C 202.523438 181.636719 204.378906 177.355469 204.378906 172.757812 C 204.378906 168.027344 202.523438 163.808594 199.394531 160.742188 Z M 227.125 228.09375 C 229.554688 229.882812 231.726562 231.863281 233.773438 233.910156 C 245.65625 245.792969 253.007812 262.28125 253.007812 280.300781 L 253.007812 306.945312 C 253.007812 309.949219 251.089844 312.503906 248.277344 313.273438 C 238.691406 317.296875 228.789062 320.171875 218.820312 322.21875 C 208.53125 324.261719 197.988281 325.347656 187.445312 325.347656 C 143.226562 325.347656 103.351562 307.394531 74.40625 278.574219 C 45.652344 249.691406 27.695312 209.816406 27.695312 165.597656 C 27.695312 121.507812 45.652344 81.636719 74.46875 52.6875 C 103.417969 23.871094 143.289062 5.914062 187.507812 5.914062 C 231.601562 5.914062 271.472656 23.871094 300.421875 52.6875 C 329.238281 81.636719 347.195312 121.507812 347.195312 165.597656 C 347.195312 190.585938 341.378906 214.800781 330.582031 236.59375 C 330.324219 236.976562 330.199219 237.296875 330.003906 237.679688 C 329.496094 238.507812 329.175781 239.402344 328.664062 240.234375 C 316.777344 262.917969 299.332031 282.664062 277.542969 297.554688 C 274.539062 299.597656 270.515625 298.765625 268.46875 295.828125 C 266.425781 292.824219 267.128906 288.671875 270.195312 286.625 C 290.195312 272.953125 306.171875 254.867188 317.097656 234.035156 C 313.007812 225.921875 306.683594 218.890625 299.015625 213.90625 C 290.769531 208.605469 280.929688 205.410156 270.449219 205.410156 C 260.609375 205.410156 251.410156 208.09375 243.675781 212.820312 C 237.03125 216.71875 231.472656 221.960938 227.125 228.09375 Z M 227.125 228.09375 " fill-opacity="1" fill-rule="nonzero"/></g></svg>