<svg xmlns="http://www.w3.org/2000/svg" xmlns:xlink="http://www.w3.org/1999/xlink" width="500" zoomAndPan="magnify" viewBox="0 0 375 374.999991" height="500" preserveAspectRatio="xMidYMid meet" version="1.0"><defs><g/><clipPath id="a0bec8c88f"><path d="M 124.003906 66.867188 L 250.753906 66.867188 L 250.753906 193.617188 L 124.003906 193.617188 Z M 124.003906 66.867188 " clip-rule="nonzero"/></clipPath></defs><g clip-path="url(#a0bec8c88f)"><path fill="#1d2f6f" d="M 162.789062 178.117188 C 161.929688 177.683594 161.34375 176.773438 161.34375 175.757812 C 161.34375 168.582031 164.285156 162.070312 168.976562 157.355469 C 169.683594 156.644531 170.523438 155.910156 171.332031 155.25 C 172.449219 156.644531 173.359375 158.191406 174.019531 159.8125 C 173.539062 160.191406 173.109375 160.625 172.675781 161.054688 C 169.203125 164.527344 166.949219 169.167969 166.617188 174.3125 C 168.824219 175.554688 170.523438 176.339844 172.144531 176.570312 C 173.691406 176.773438 175.414062 176.46875 177.722656 175.65625 L 177.722656 166.859375 C 177.722656 161.132812 175.363281 155.910156 171.5625 152.15625 C 167.808594 148.355469 162.613281 146.046875 156.910156 146.046875 C 152.246094 146.046875 147.960938 147.59375 144.511719 150.128906 C 141.242188 152.589844 138.707031 155.933594 137.3125 159.839844 C 139.824219 164.019531 142.839844 167.925781 146.261719 171.371094 C 156.78125 181.894531 171.359375 188.382812 187.40625 188.382812 C 191.257812 188.382812 195.035156 188.003906 198.789062 187.214844 C 202.007812 186.582031 205.125 185.667969 208.21875 184.527344 L 208.21875 175.734375 C 208.21875 170.003906 205.859375 164.832031 202.058594 161.03125 C 198.304688 157.277344 193.109375 154.921875 187.40625 154.921875 C 185.808594 154.921875 184.289062 155.125 182.792969 155.453125 C 182.082031 153.78125 181.195312 152.183594 180.15625 150.738281 C 182.460938 150.054688 184.871094 149.671875 187.40625 149.671875 C 191.4375 149.671875 195.289062 150.636719 198.710938 152.257812 C 200.867188 149.089844 203.707031 146.453125 206.976562 144.476562 C 210.878906 142.117188 215.441406 140.773438 220.285156 140.773438 C 225.480469 140.773438 230.375 142.320312 234.453125 145.007812 C 237.140625 146.78125 239.550781 149.039062 241.425781 151.699219 C 244.0625 144.984375 245.507812 137.65625 245.507812 130.203125 C 245.507812 114.15625 239.019531 99.632812 228.496094 89.113281 C 217.976562 78.589844 203.453125 72.101562 187.40625 72.101562 C 171.359375 72.101562 156.78125 78.617188 146.261719 89.136719 C 135.742188 99.65625 129.253906 114.183594 129.253906 130.230469 C 129.253906 138.695312 131.078125 146.707031 134.296875 153.980469 C 136.070312 150.863281 138.53125 148.125 141.421875 145.945312 C 145.804688 142.726562 151.128906 140.800781 156.933594 140.800781 C 164.109375 140.800781 170.574219 143.742188 175.289062 148.429688 C 180.003906 153.121094 182.917969 159.6875 182.917969 166.835938 L 182.917969 177.40625 C 182.917969 178.519531 182.207031 179.511719 181.195312 179.863281 C 177.214844 181.488281 174.375 182.070312 171.484375 181.691406 C 168.695312 181.359375 166.210938 180.117188 162.789062 178.117188 Z M 156.933594 112.410156 C 160.253906 112.410156 163.222656 113.75 165.402344 115.882812 C 167.554688 118.035156 168.898438 121.078125 168.898438 124.347656 C 168.898438 127.667969 167.554688 130.636719 165.402344 132.816406 C 163.246094 134.96875 160.253906 136.3125 156.933594 136.3125 C 153.664062 136.3125 150.648438 134.96875 148.46875 132.816406 C 146.3125 130.660156 144.996094 127.667969 144.996094 124.347656 C 144.996094 121.078125 146.289062 118.0625 148.46875 115.882812 C 150.621094 113.75 153.664062 112.410156 156.933594 112.410156 Z M 161.699219 119.558594 C 160.507812 118.367188 158.808594 117.628906 156.933594 117.628906 C 155.109375 117.628906 153.4375 118.339844 152.167969 119.558594 C 150.976562 120.800781 150.191406 122.496094 150.191406 124.324219 C 150.191406 126.199219 150.953125 127.871094 152.167969 129.089844 C 153.410156 130.28125 155.109375 131.066406 156.933594 131.066406 C 158.808594 131.066406 160.484375 130.304688 161.699219 129.089844 C 162.917969 127.871094 163.675781 126.199219 163.675781 124.324219 C 163.652344 122.496094 162.890625 120.800781 161.699219 119.558594 Z M 217.824219 112.410156 C 221.144531 112.410156 224.113281 113.75 226.292969 115.882812 C 228.445312 118.035156 229.765625 121.078125 229.765625 124.347656 C 229.765625 127.667969 228.472656 130.636719 226.292969 132.816406 C 224.136719 134.96875 221.144531 136.3125 217.824219 136.3125 C 214.503906 136.3125 211.539062 134.96875 209.359375 132.816406 C 207.203125 130.660156 205.859375 127.667969 205.859375 124.347656 C 205.859375 121.078125 207.203125 118.0625 209.359375 115.882812 C 211.539062 113.75 214.503906 112.410156 217.824219 112.410156 Z M 222.589844 119.558594 C 221.347656 118.367188 219.648438 117.628906 217.824219 117.628906 C 215.949219 117.628906 214.277344 118.339844 213.058594 119.558594 C 211.867188 120.800781 211.082031 122.496094 211.082031 124.324219 C 211.082031 126.199219 211.84375 127.871094 213.058594 129.089844 C 214.277344 130.304688 215.949219 131.066406 217.824219 131.066406 C 219.648438 131.066406 221.324219 130.304688 222.589844 129.089844 C 223.78125 127.898438 224.566406 126.199219 224.566406 124.324219 C 224.566406 122.496094 223.78125 120.800781 222.589844 119.558594 Z M 187.40625 121.101562 C 190.675781 121.101562 193.640625 122.445312 195.820312 124.601562 C 197.976562 126.757812 199.320312 129.746094 199.320312 133.070312 C 199.320312 136.339844 197.976562 139.304688 195.820312 141.484375 C 193.667969 143.640625 190.675781 144.984375 187.40625 144.984375 C 184.085938 144.984375 181.117188 143.640625 178.9375 141.484375 C 176.785156 139.328125 175.441406 136.339844 175.441406 133.070312 C 175.441406 129.746094 176.785156 126.78125 178.9375 124.601562 C 181.117188 122.445312 184.085938 121.101562 187.40625 121.101562 Z M 192.121094 128.304688 C 190.929688 127.113281 189.230469 126.324219 187.40625 126.324219 C 185.527344 126.324219 183.855469 127.085938 182.640625 128.304688 C 181.398438 129.496094 180.660156 131.191406 180.660156 133.070312 C 180.660156 134.894531 181.371094 136.566406 182.640625 137.785156 C 183.832031 139.027344 185.527344 139.761719 187.40625 139.761719 C 189.230469 139.761719 190.902344 139.050781 192.121094 137.785156 C 193.363281 136.59375 194.097656 134.894531 194.097656 133.070312 C 194.097656 131.191406 193.363281 129.519531 192.121094 128.304688 Z M 203.121094 155.023438 C 204.085938 155.730469 204.949219 156.515625 205.757812 157.328125 C 210.472656 162.042969 213.390625 168.582031 213.390625 175.734375 L 213.390625 186.304688 C 213.390625 187.496094 212.628906 188.507812 211.511719 188.8125 C 207.710938 190.410156 203.78125 191.550781 199.828125 192.363281 C 195.746094 193.171875 191.5625 193.605469 187.378906 193.605469 C 169.835938 193.605469 154.019531 186.480469 142.535156 175.046875 C 131.128906 163.589844 124.003906 147.773438 124.003906 130.230469 C 124.003906 112.738281 131.128906 96.917969 142.5625 85.4375 C 154.042969 74.003906 169.863281 66.878906 187.40625 66.878906 C 204.898438 66.878906 220.714844 74.003906 232.199219 85.4375 C 243.632812 96.917969 250.753906 112.738281 250.753906 130.230469 C 250.753906 140.140625 248.449219 149.75 244.164062 158.394531 C 244.0625 158.546875 244.011719 158.671875 243.9375 158.824219 C 243.734375 159.152344 243.605469 159.507812 243.402344 159.839844 C 238.6875 168.835938 231.769531 176.671875 223.125 182.578125 C 221.933594 183.386719 220.335938 183.058594 219.523438 181.894531 C 218.710938 180.703125 218.992188 179.054688 220.207031 178.242188 C 228.144531 172.816406 234.480469 165.644531 238.816406 157.378906 C 237.191406 154.160156 234.683594 151.371094 231.640625 149.394531 C 228.371094 147.289062 224.46875 146.023438 220.308594 146.023438 C 216.40625 146.023438 212.753906 147.085938 209.6875 148.964844 C 207.050781 150.507812 204.847656 152.589844 203.121094 155.023438 Z M 203.121094 155.023438 " fill-opacity="1" fill-rule="nonzero"/></g><g fill="#1d2f6f" fill-opacity="1"><g transform="translate(85.22266, 225.887637)"><g><path d="M 11.574219 0.574219 C 18.179688 0.574219 22.503906 -2.921875 22.503906 -8.285156 C 22.503906 -13.644531 18.179688 -17.140625 11.574219 -17.140625 C 4.96875 -17.140625 0.644531 -13.644531 0.644531 -8.285156 C 0.644531 -2.921875 4.96875 0.574219 11.574219 0.574219 Z M 11.574219 -4.488281 C 8.996094 -4.488281 7.316406 -5.984375 7.316406 -8.285156 C 7.316406 -10.585938 8.996094 -12.082031 11.574219 -12.082031 C 14.152344 -12.082031 15.832031 -10.585938 15.832031 -8.285156 C 15.832031 -5.984375 14.152344 -4.488281 11.574219 -4.488281 Z M 11.574219 -4.488281 "/></g></g></g><g fill="#1d2f6f" fill-opacity="1"><g transform="translate(112.9439, 225.887637)"><g><path d="M 10.652344 0.460938 C 16.867188 0.460938 20.316406 -2.230469 20.316406 -7.085938 L 20.316406 -16.566406 L 13.644531 -16.566406 L 13.644531 -7.433594 C 13.644531 -5.613281 12.5625 -4.671875 10.652344 -4.671875 C 8.722656 -4.671875 7.664062 -5.613281 7.664062 -7.433594 L 7.664062 -16.566406 L 0.988281 -16.566406 L 0.988281 -7.085938 C 0.988281 -2.230469 4.441406 0.460938 10.652344 0.460938 Z M 10.652344 0.460938 "/></g></g></g><g fill="#1d2f6f" fill-opacity="1"><g transform="translate(138.824826, 225.887637)"><g><path d="M 16.773438 0.414062 C 18.339844 0.414062 20.132812 -0.0703125 21.078125 -0.757812 L 20.25 -3.472656 C 19.996094 -3.3125 19.558594 -3.175781 19.238281 -3.175781 C 18.660156 -3.175781 18.316406 -3.472656 18.0625 -3.910156 L 17.347656 -5.0625 C 17.027344 -5.753906 16.613281 -6.210938 15.96875 -6.398438 L 15.96875 -6.417969 C 18.570312 -7.15625 20.019531 -8.835938 20.019531 -11.113281 C 20.019531 -14.632812 17.511719 -16.566406 12.953125 -16.566406 L 1.152344 -16.566406 L 1.152344 0 L 7.824219 0 L 7.824219 -5.292969 L 9.25 -5.292969 C 10.214844 -5.292969 10.90625 -4.785156 11.390625 -3.957031 L 12.035156 -2.714844 C 12.886719 -1.011719 14.335938 0.414062 16.773438 0.414062 Z M 7.824219 -9.089844 L 7.824219 -12.425781 L 11.273438 -12.425781 C 12.609375 -12.425781 13.347656 -11.828125 13.347656 -10.769531 C 13.347656 -9.6875 12.609375 -9.089844 11.25 -9.089844 Z M 7.824219 -9.089844 "/></g></g></g><g fill="#1d2f6f" fill-opacity="1"><g transform="translate(164.613742, 225.887637)"><g/></g></g><g fill="#1d2f6f" fill-opacity="1"><g transform="translate(173.586824, 225.887637)"><g><path d="M 9.734375 0.527344 C 15.417969 0.527344 19.257812 -1.679688 19.238281 -5.40625 C 19.238281 -8.558594 17.050781 -10.125 11.941406 -10.675781 L 9.570312 -10.90625 C 7.914062 -11.089844 7.179688 -11.367188 7.203125 -11.851562 C 7.203125 -12.496094 8.304688 -12.886719 9.894531 -12.886719 C 11.644531 -12.910156 13.484375 -12.289062 14.589844 -11.207031 L 18.0625 -13.875 C 16.726562 -15.875 13.554688 -17.097656 9.941406 -17.097656 C 4.53125 -17.097656 0.734375 -15.027344 0.714844 -11.390625 C 0.714844 -8.351562 2.875 -6.789062 7.890625 -6.167969 L 10.195312 -5.914062 C 12.011719 -5.707031 12.792969 -5.382812 12.792969 -4.832031 C 12.792969 -4.164062 11.757812 -3.796875 10.078125 -3.796875 C 7.871094 -3.796875 5.523438 -4.625 4.234375 -5.914062 L 0.507812 -3.199219 C 1.957031 -0.691406 5.707031 0.527344 9.734375 0.527344 Z M 9.734375 0.527344 "/></g></g></g><g fill="#1d2f6f" fill-opacity="1"><g transform="translate(197.765465, 225.887637)"><g><path d="M 11.414062 0.460938 C 17.210938 0.460938 21.238281 -2.347656 21.8125 -6.765625 L 15.648438 -7.59375 C 15.324219 -5.777344 13.738281 -4.601562 11.550781 -4.601562 C 8.949219 -4.601562 7.316406 -6.027344 7.316406 -8.285156 C 7.316406 -10.539062 8.742188 -11.964844 11 -11.964844 C 12.746094 -11.964844 13.945312 -11 14.359375 -9.480469 L 20.410156 -10.792969 C 19.652344 -14.613281 15.945312 -17.027344 10.882812 -17.027344 C 4.601562 -17.027344 0.644531 -13.621094 0.644531 -8.285156 C 0.644531 -2.832031 4.832031 0.460938 11.414062 0.460938 Z M 11.414062 0.460938 "/></g></g></g><g fill="#1d2f6f" fill-opacity="1"><g transform="translate(224.451529, 225.887637)"><g><path d="M 1.152344 0 L 16.335938 0 L 16.335938 -4.488281 L 7.59375 -4.488281 L 7.59375 -6.511719 L 15.1875 -6.511719 L 15.1875 -10.308594 L 7.59375 -10.308594 L 7.59375 -12.082031 L 16.105469 -12.082031 L 16.105469 -16.566406 L 1.152344 -16.566406 Z M 1.152344 0 "/></g></g></g><g fill="#1d2f6f" fill-opacity="1"><g transform="translate(245.846704, 225.887637)"><g><path d="M 1.152344 0 L 7.363281 0 L 7.363281 -9.664062 L 7.410156 -9.664062 L 13.691406 0 L 21.398438 0 L 21.398438 -16.566406 L 15.1875 -16.566406 L 15.1875 -6.972656 L 15.164062 -6.972656 L 8.859375 -16.566406 L 1.152344 -16.566406 Z M 1.152344 0 "/></g></g></g><g fill="#1d2f6f" fill-opacity="1"><g transform="translate(272.992843, 225.887637)"><g><path d="M 1.152344 0 L 16.335938 0 L 16.335938 -4.488281 L 7.59375 -4.488281 L 7.59375 -6.511719 L 15.1875 -6.511719 L 15.1875 -10.308594 L 7.59375 -10.308594 L 7.59375 -12.082031 L 16.105469 -12.082031 L 16.105469 -16.566406 L 1.152344 -16.566406 Z M 1.152344 0 "/></g></g></g></svg>